<svg width="2427" height="796" viewBox="0 0 2427 796" fill="none" xmlns="http://www.w3.org/2000/svg">
<g clip-path="url(#clip0_37_16351)">
<path d="M923.56 647.42H834V262.81H923.56V647.42ZM1104.33 489.73H916.42V414.46H1104.33V489.73ZM1097.73 262.81H1186.73V647.42H1097.73V262.81Z" fill="#020933"/>
<path d="M1363.11 651.81C1340.4 651.81 1320.81 647.873 1304.32 640C1287.83 632.127 1275.11 621.413 1266.14 607.86C1257.17 594.354 1252.48 578.461 1252.67 562.25C1252.67 545.037 1256.98 529.743 1265.59 516.37C1274.2 502.997 1287.85 492.663 1306.52 485.37C1325.19 478.037 1349.73 474.37 1380.15 474.37H1458.15V523.82H1388.92C1368.77 523.82 1354.94 527.117 1347.43 533.71C1343.83 536.733 1340.95 540.522 1339 544.801C1337.05 549.08 1336.09 553.739 1336.17 558.44C1336.17 569.433 1340.47 578.133 1349.08 584.54C1357.69 590.947 1369.32 594.15 1383.97 594.15C1398.64 594.15 1411.73 590.853 1423.26 584.26C1434.79 577.667 1442.94 567.58 1447.72 554L1460.91 594.11C1455.07 611.948 1442.97 627.071 1426.85 636.69C1410.36 646.777 1389.11 651.817 1363.11 651.81ZM1453.22 647.42V589.72L1447.72 577.09V473.79C1447.72 455.483 1442.14 441.2 1430.97 430.94C1419.8 420.68 1402.68 415.55 1379.6 415.55C1363.83 415.555 1348.16 418.059 1333.17 422.97C1317.96 427.917 1304.86 434.603 1293.88 443.03L1263.66 383.14C1279.78 371.42 1299.19 362.537 1321.9 356.49C1344.48 350.459 1367.76 347.409 1391.13 347.42C1436.19 347.42 1471.17 358.043 1496.08 379.29C1520.99 400.537 1533.44 433.687 1533.44 478.74V647.42H1453.22Z" fill="#020933"/>
<path d="M1989.46 347.42C2012.9 347.42 2033.69 352.087 2051.83 361.42C2069.97 370.753 2084.16 385.04 2094.41 404.28C2104.66 423.507 2109.79 448.14 2109.79 478.18V647.42H2024.08V491.42C2024.08 467.607 2019.23 450.023 2009.52 438.67C1999.81 427.317 1986.17 421.65 1968.59 421.67C1955.76 421.67 1944.41 424.507 1934.52 430.18C1924.63 435.853 1917.03 444.28 1911.72 455.46C1906.39 466.627 1903.72 481.187 1903.72 499.14V647.42H1818V491.42C1818 467.607 1813.15 450.023 1803.44 438.67C1793.73 427.317 1779.73 421.65 1761.44 421.67C1748.98 421.67 1737.81 424.507 1727.92 430.18C1718.03 435.853 1710.34 444.28 1704.85 455.46C1699.35 466.627 1696.6 481.187 1696.6 499.14V647.42H1610.9V351.82H1692.77V432L1677.38 409C1687.27 388.86 1701.74 373.567 1720.79 363.12C1739.84 352.673 1761.27 347.453 1785.07 347.46C1812.18 347.46 1835.99 354.33 1856.5 368.07C1877.01 381.81 1890.56 402.78 1897.16 430.98L1866.94 422.73C1876.83 400.03 1892.58 381.81 1914.19 368.07C1935.8 354.33 1960.89 347.447 1989.46 347.42Z" fill="#020933"/>
<path d="M2286.71 651.81C2262.25 651.912 2237.87 648.867 2214.19 642.75C2191.11 636.703 2172.61 629.103 2158.69 619.95L2186.69 558.95C2200.61 567.01 2216.82 573.677 2235.32 578.95C2253.08 584.171 2271.48 586.864 2289.99 586.95C2309.77 586.95 2323.77 584.567 2331.99 579.8C2340.21 575.033 2344.33 568.443 2344.35 560.03C2344.35 553.07 2341.15 547.85 2334.74 544.37C2328.33 540.89 2319.91 538.223 2309.46 536.37C2299.02 534.543 2287.39 532.713 2274.57 530.88C2261.71 529.039 2248.96 526.468 2236.39 523.18C2224.11 520.04 2212.29 515.335 2201.22 509.18C2190.56 503.274 2181.65 494.648 2175.4 484.18C2168.99 473.56 2165.79 459.827 2165.79 442.98C2165.79 424.313 2171.28 407.737 2182.27 393.25C2193.26 378.763 2208.82 367.5 2228.97 359.46C2249.11 351.407 2273.47 347.377 2302.05 347.37C2322.84 347.402 2343.57 349.705 2363.86 354.24C2384.53 358.82 2402.02 365.153 2416.33 373.24L2387.21 434.24C2373.95 426.465 2359.6 420.734 2344.63 417.24C2331.03 414.047 2317.12 412.39 2303.15 412.3C2283.36 412.3 2269.08 414.863 2260.29 419.99C2251.5 425.117 2247.11 431.71 2247.1 439.77C2247.1 447.103 2250.4 452.69 2256.99 456.53C2263.58 460.37 2272.19 463.207 2282.82 465.04C2293.44 466.88 2305.16 468.713 2317.98 470.54C2330.76 472.36 2343.41 474.928 2355.89 478.23C2368.06 481.415 2379.78 486.119 2390.78 492.23C2401.44 498.141 2410.35 506.766 2416.61 517.23C2423.01 527.857 2426.21 541.593 2426.22 558.44C2426.4 575.879 2420.58 592.849 2409.74 606.51C2398.75 620.617 2382.91 631.697 2362.21 639.75C2341.51 647.803 2316.34 651.823 2286.71 651.81Z" fill="#020933"/>
<path d="M384.54 42.7202L383.75 42.3202L292.07 22.2202L136.45 173.67L430.98 508.94L418.45 693.81L363.92 760.95L371.41 757.47L435.68 714.17L524.46 554.37L341.68 230.59L286.33 97.9402L384.54 42.7202Z" fill="url(#paint0_linear_37_16351)"/>
<path d="M137.26 325.5L135.92 324.25L209.04 354.88L377.19 552.28L397.04 679.71L345.86 758.04L272.75 787.29L259.34 792.56L255.97 793.09L265.44 763.26L338.55 725.66L352.13 653.6L343.77 577.35L294.68 493.79L211.13 388.3L160.99 346.52L137.26 325.5Z" fill="url(#paint1_linear_37_16351)"/>
<path d="M247.76 102C265 30.3602 384.26 42.5802 384.26 42.5802C387.993 44.4336 391.69 46.3502 395.35 48.3302C396.41 48.8902 397.46 49.4702 398.51 50.0602C407.983 55.2869 417.193 60.8736 426.14 66.8202L429.14 68.8202C430.26 69.5802 431.39 70.3502 432.5 71.1302L435 72.8802C436.74 74.1002 438.45 75.3402 440.17 76.5802L440.87 77.1002C441.8 77.7802 442.74 78.4702 443.66 79.1602C449.12 83.2336 454.453 87.4369 459.66 91.7702L462.11 93.8302C464.26 95.6302 466.38 97.4602 468.49 99.3302L471.14 101.68L473.76 104.06C474.64 104.85 475.51 105.66 476.37 106.46L478.95 108.89C480.67 110.52 482.37 112.15 484.06 113.8C485.75 115.45 487.41 117.13 489.06 118.8C490.71 120.47 492.34 122.19 493.97 123.89L496.4 126.48C498.8 129.06 501.18 131.68 503.51 134.33C504.29 135.21 505.07 136.11 505.83 136.99C506.59 137.87 507.38 138.78 508.14 139.67C508.9 140.56 509.66 141.46 510.41 142.37C511.916 144.184 513.413 146.004 514.9 147.83L517.1 150.59C519.3 153.364 521.453 156.16 523.56 158.98C524.26 159.98 524.96 160.88 525.67 161.82L527.74 164.67C529.12 166.584 530.48 168.507 531.82 170.44L533.58 173C534.68 174.61 535.77 176.22 536.84 177.85C537.44 178.75 538.05 179.67 538.63 180.58C538.99 181.12 539.34 181.67 539.63 182.21C540.27 183.21 540.9 184.21 541.51 185.16C544.04 189.16 546.51 193.23 548.88 197.32C549.47 198.32 550.04 199.32 550.6 200.32C551.42 201.76 552.23 203.19 553.02 204.63C553.6 205.63 554.16 206.63 554.71 207.71C558.61 214.91 562.276 222.244 565.71 229.71L567.18 232.91L568.88 236.71L570.03 239.36C570.53 240.49 571.03 241.65 571.49 242.78L572.76 245.85C574.13 249.18 575.45 252.51 576.76 255.85C577.16 256.85 577.55 257.93 577.93 258.98C578.31 260.03 578.75 261.19 579.15 262.3C579.816 264.254 580.503 266.207 581.21 268.16C584.03 276.454 586.59 284.847 588.89 293.34C589.15 294.27 589.39 295.22 589.63 296.17C590.02 297.64 590.4 299.11 590.77 300.59C591.22 302.38 591.65 304.18 592.08 305.99C592.653 308.49 593.21 310.997 593.75 313.51C594.01 314.67 594.25 315.85 594.48 317.01C595.2 320.51 595.87 324.01 596.48 327.57C596.9 329.95 597.296 332.324 597.67 334.69C597.86 335.86 598.04 337.03 598.2 338.21L598.74 341.96C598.89 343.08 599.05 344.22 599.19 345.36C599.49 347.75 599.79 350.14 600.06 352.53C600.33 354.92 600.54 357.07 600.75 359.35C601.123 363.39 601.436 367.444 601.69 371.51C601.82 373.63 601.94 375.76 602.04 377.88C602.19 381.25 602.31 384.63 602.37 388.01C602.37 388.88 602.37 389.73 602.42 390.6C602.42 392.55 602.42 394.49 602.42 396.45C602.484 448.607 592.73 500.311 573.67 548.86C532.452 642.352 458.44 717.524 365.6 760.19C379.383 750.527 392.334 739.73 404.32 727.91C419.967 713.955 433.487 697.783 444.45 679.91L444.84 679.31L444.98 679.08C444.98 679.08 444.98 679.03 444.98 679.01C479.57 622.39 485.59 556.25 475.87 512.8C451.63 404.1 327.59 264.71 327.59 264.71C272.84 206.26 254.45 157.91 248.48 135.77C245.424 124.75 245.176 113.14 247.76 102Z" fill="url(#paint2_linear_37_16351)"/>
<path d="M155.62 616.9C185.17 580.9 252.3 477.69 168.12 360.75C158.762 347.782 148.18 335.744 136.52 324.8C139.52 326.93 332.21 461.85 372.25 572.8C373.25 575.46 374.25 578.09 375.25 580.73C382.12 598.64 406.75 673.47 360.86 723.82C335.72 751.42 294.7 775.47 257.27 792.92C254.876 793.3 252.48 793.656 250.08 793.99L248.7 794.17C228.98 796.53 189.95 798.71 160.27 784.51C137.7 773.73 120.53 753.51 121.38 716.67C121.47 712.67 121.44 708.59 121.38 704.56C121.29 699.13 121.84 689.48 125.38 675.93C131.051 654.289 141.37 634.145 155.62 616.9Z" fill="url(#paint3_linear_37_16351)"/>
<path d="M2.77982 130.44C27.0498 29.52 120.83 4.88002 180.64 0.51002H180.82C188.833 0.11002 196.893 -0.0599796 205 2.03811e-05C207.23 2.03811e-05 209.44 0.0600204 211.65 0.11002L214.42 0.19002L217.2 0.29002C219.9 0.40002 222.6 0.52002 225.29 0.69002C226.54 0.75002 227.79 0.83002 229.05 0.92002C229.26 0.92002 229.48 0.92002 229.68 0.92002C231.87 1.07002 234.06 1.24002 236.23 1.42002C238.06 1.57002 239.89 1.74002 241.72 1.92002C242.57 1.99002 243.42 2.08002 244.26 2.17002C245.45 2.29002 246.64 2.41002 247.83 2.56002C249.63 2.75002 251.45 2.96002 253.25 3.19002L255.68 3.51002C256.95 3.67002 258.21 3.85002 259.48 4.03002C261.26 4.27002 263.04 4.54002 264.8 4.81002C266.56 5.08002 268.42 5.37002 270.22 5.68002C272.02 5.99002 273.69 6.26002 275.43 6.58002C277.17 6.89002 278.91 7.22002 280.65 7.58002C282.29 7.88002 283.94 8.22002 285.58 8.58002C289.193 9.33335 292.786 10.14 296.36 11C298.08 11.4 299.81 11.81 301.54 12.25L305.9 13.35L307.44 13.76C308.9 14.14 310.35 14.52 311.79 14.93C313.63 15.43 315.48 15.93 317.32 16.49L322 17.83L326.19 19.12C326.49 19.21 326.77 19.3 327.06 19.41C328.72 19.93 330.39 20.47 332.06 21.02C335.06 22.02 338.01 23.02 340.95 24.07L341.19 24.16C342.1 24.48 343.01 24.81 343.91 25.16C345.67 25.78 347.39 26.44 349.12 27.1C350.12 27.48 351.12 27.87 352.12 28.28C352.256 28.3212 352.39 28.3713 352.52 28.43C363.373 32.6967 373.96 37.4167 384.28 42.59C384.28 42.59 265 30.36 247.76 102C245.176 113.14 245.424 124.75 248.48 135.77C254.48 157.91 272.84 206.26 327.59 264.71C327.59 264.71 451.59 404.1 475.92 512.8C485.64 556.25 479.62 622.39 445.03 679.01C445.03 679.01 445.03 679.01 445.03 679.08L444.89 679.31L444.5 679.91C441.59 684.4 427.8 704.91 404.37 727.91C392.384 739.729 379.433 750.527 365.65 760.19C341.628 771.233 316.599 779.94 290.91 786.19C290.01 786.42 289.13 786.62 288.24 786.84C279.36 788.947 270.36 790.757 261.24 792.27H261.12H260.92L260.42 792.36C259.36 792.54 258.31 792.7 257.25 792.86C294.68 775.41 335.7 751.36 360.84 723.76C406.73 673.41 382.1 598.58 375.23 580.67C374.23 578.03 373.23 575.4 372.23 572.74C332.23 461.82 139.55 326.9 136.5 324.74C125.656 314.554 113.993 305.276 101.63 297C63.1198 271.12 -15.7502 207.47 2.77982 130.44Z" fill="url(#paint4_linear_37_16351)"/>
<path d="M404.32 727.91C427.75 704.91 441.54 684.41 444.45 679.91C433.488 697.783 419.967 713.954 404.32 727.91Z" fill="url(#paint5_linear_37_16351)"/>
</g>
<defs>
<linearGradient id="paint0_linear_37_16351" x1="524.47" y1="391.59" x2="136.45" y2="391.59" gradientUnits="userSpaceOnUse">
<stop offset="0.18" stop-color="#8C1DBA"/>
<stop offset="0.91" stop-color="#15057F"/>
</linearGradient>
<linearGradient id="paint1_linear_37_16351" x1="397.04" y1="558.67" x2="135.93" y2="558.67" gradientUnits="userSpaceOnUse">
<stop offset="0.18" stop-color="#8C1DBA"/>
<stop offset="0.91" stop-color="#15057F"/>
</linearGradient>
<linearGradient id="paint2_linear_37_16351" x1="889.93" y1="925.13" x2="-149.26" y2="-165.89" gradientUnits="userSpaceOnUse">
<stop offset="0.18" stop-color="#8C1DBA"/>
<stop offset="0.81" stop-color="#15057F"/>
</linearGradient>
<linearGradient id="paint3_linear_37_16351" x1="46.4899" y1="819.13" x2="422.89" y2="271.8" gradientUnits="userSpaceOnUse">
<stop offset="0.12" stop-color="#8C1DBA"/>
<stop offset="0.95" stop-color="#15057F"/>
</linearGradient>
<linearGradient id="paint4_linear_37_16351" x1="883.67" y1="768.57" x2="-289.17" y2="37.59" gradientUnits="userSpaceOnUse">
<stop offset="0.18" stop-color="#8C1DBA"/>
<stop offset="0.91" stop-color="#15057F"/>
</linearGradient>
<linearGradient id="paint5_linear_37_16351" x1="444.46" y1="703.91" x2="404.33" y2="703.91" gradientUnits="userSpaceOnUse">
<stop offset="0.05" stop-color="#8713DB"/>
<stop offset="0.69" stop-color="#6816D7"/>
</linearGradient>
<clipPath id="clip0_37_16351">
<rect width="2426.27" height="795.87" fill="white"/>
</clipPath>
</defs>
</svg>
