<svg version="1.2" xmlns="http://www.w3.org/2000/svg" viewBox="0 0 2427 796" width="2427" height="796">
	<title>hams-logo-en</title>
	<defs>
		<clipPath clipPathUnits="userSpaceOnUse" id="cp1">
			<path d="m0 0h2426.27v795.87h-2426.27z"/>
		</clipPath>
		<linearGradient id="g1" x2="1" gradientUnits="userSpaceOnUse" gradientTransform="matrix(-388.02,0,0,-738.749,524.47,391.59)">
			<stop offset=".18" stop-color="#8c1dba"/>
			<stop offset=".91" stop-color="#15057f"/>
		</linearGradient>
		<linearGradient id="g2" x2="1" gradientUnits="userSpaceOnUse" gradientTransform="matrix(-261.11,0,0,-468.822,397.04,558.67)">
			<stop offset=".18" stop-color="#8c1dba"/>
			<stop offset=".91" stop-color="#15057f"/>
		</linearGradient>
		<linearGradient id="g3" x2="1" gradientUnits="userSpaceOnUse" gradientTransform="matrix(-1039.19,-1091.02,982.382,-935.713,889.93,925.13)">
			<stop offset=".18" stop-color="#8c1dba"/>
			<stop offset=".81" stop-color="#15057f"/>
		</linearGradient>
		<linearGradient id="g4" x2="1" gradientUnits="userSpaceOnUse" gradientTransform="matrix(376.4,-547.33,615.397,423.21,46.49,819.13)">
			<stop offset=".12" stop-color="#8c1dba"/>
			<stop offset=".95" stop-color="#15057f"/>
		</linearGradient>
		<linearGradient id="g5" x2="1" gradientUnits="userSpaceOnUse" gradientTransform="matrix(-1172.84,-730.98,763.143,-1224.445,883.67,768.57)">
			<stop offset=".18" stop-color="#8c1dba"/>
			<stop offset=".91" stop-color="#15057f"/>
		</linearGradient>
		<linearGradient id="g6" x2="1" gradientUnits="userSpaceOnUse" gradientTransform="matrix(-40.13,0,0,-48,444.46,703.91)">
			<stop offset=".05" stop-color="#8713db"/>
			<stop offset=".69" stop-color="#6816d7"/>
		</linearGradient>
	</defs>
	<style>
		.s0 { fill: #ffffff } 
		.s1 { fill: url(#g1) } 
		.s2 { fill: url(#g2) } 
		.s3 { fill: url(#g3) } 
		.s4 { fill: url(#g4) } 
		.s5 { fill: url(#g5) } 
		.s6 { fill: url(#g6) } 
	</style>
	<g id="Clip-Path" clip-path="url(#cp1)">
		<g>
			<path class="s0" d="m923.6 647.4h-89.6v-384.6h89.6zm180.7-157.7h-187.9v-75.2h187.9zm-6.6-227h89v384.6h-89z"/>
			<path class="s0" d="m1363.1 651.8q-34 0-58.8-11.8-24.7-11.8-38.2-32.1c-8.9-13.5-13.6-29.4-13.4-45.6q0-25.9 12.9-45.9 12.9-20.1 40.9-31 28-11 73.7-11h78v49.4h-69.3q-30.2 0-41.5 9.9c-3.6 3-6.4 6.8-8.4 11.1-1.9 4.3-2.9 8.9-2.8 13.6q0 16.5 12.9 26.1 12.9 9.7 34.9 9.7 22-0.1 39.3-9.9 17.3-9.9 24.4-30.3l13.2 40.1c-5.8 17.8-17.9 33-34 42.6q-24.8 15.1-63.8 15.1zm90.1-4.4v-57.7l-5.5-12.6v-103.3q0-27.5-16.7-42.9-16.8-15.3-51.4-15.3c-15.8 0-31.4 2.5-46.4 7.4q-22.8 7.4-39.3 20l-30.2-59.9q24.1-17.5 58.2-26.6c22.6-6 45.9-9.1 69.2-9.1q67.6 0 105 31.9 37.3 31.9 37.3 99.4v168.7z"/>
			<path class="s0" d="m1989.5 347.4q35.1 0 62.3 14 27.2 14 42.6 42.9 15.4 28.8 15.4 73.9v169.2h-85.7v-156q0-35.7-14.6-52.7-14.5-17.1-40.9-17-19.3 0-34.1 8.5-14.8 8.5-22.8 25.3-8 16.7-8 43.6v148.3h-85.7v-156q0-35.7-14.6-52.7-14.5-17.1-42-17-18.6 0-33.5 8.5-14.8 8.5-23.1 25.3-8.2 16.7-8.2 43.6v148.3h-85.7v-295.6h81.9v80.2l-15.4-23q14.8-30.2 43.4-45.9 28.6-15.7 64.3-15.6 40.6 0 71.4 20.6 30.8 20.6 40.7 62.9l-30.3-8.3q14.9-34 47.3-54.6 32.4-20.6 75.3-20.7z"/>
			<path class="s0" d="m2286.7 651.8c-24.4 0.1-48.8-2.9-72.5-9q-34.6-9.1-55.5-22.8l28-61q20.9 12 48.6 20c17.8 5.2 36.2 7.9 54.7 8q29.7 0 42-7.2 12.3-7.2 12.4-19.8 0-10.4-9.7-15.6-9.6-5.3-25.2-8-15.7-2.8-34.9-5.5c-12.9-1.9-25.6-4.4-38.2-7.7-12.3-3.2-24.1-7.9-35.2-14-10.6-5.9-19.5-14.6-25.8-25q-9.6-15.9-9.6-41.2 0-28 16.5-49.7 16.5-21.8 46.7-33.8 30.2-12.1 73.1-12.1c20.7 0 41.5 2.3 61.8 6.8q31 6.9 52.4 19l-29.1 61c-13.2-7.7-27.6-13.5-42.6-17-13.6-3.2-27.5-4.8-41.4-4.9q-29.7 0-42.9 7.7-13.2 7.7-13.2 19.8 0 11 9.9 16.7 9.9 5.8 25.8 8.5 16 2.8 35.2 5.5 19.2 2.8 37.9 7.7c12.2 3.2 23.9 7.9 34.9 14 10.6 5.9 19.6 14.6 25.8 25q9.6 16 9.6 41.2c0.2 17.5-5.6 34.4-16.5 48.1q-16.4 21.2-47.5 33.3-31 12-75.5 12z"/>
			<path class="s1" d="m384.5 42.7l-0.8-0.4-91.6-20.1-155.7 151.5 294.6 335.2-12.6 184.9-54.5 67.2 7.5-3.5 64.3-43.3 88.8-159.8-182.8-323.8-55.4-132.7z"/>
			<path class="s2" d="m137.3 325.5l-1.4-1.3 73.1 30.7 168.2 197.4 19.8 127.4-51.1 78.3-73.1 29.3-13.5 5.3-3.3 0.5 9.4-29.8 73.2-37.6 13.5-72.1-8.3-76.2-49.1-83.6-83.6-105.5-50.1-41.8z"/>
			<path class="s3" d="m247.8 102c17.2-71.6 136.5-59.4 136.5-59.4q5.6 2.8 11.1 5.7 1.5 0.9 3.1 1.8 14.2 7.8 27.6 16.7l3 2q1.7 1.2 3.4 2.3l2.5 1.8q2.6 1.8 5.2 3.7l0.7 0.5q1.4 1 2.8 2.1 8.1 6.1 16 12.6l2.4 2q3.2 2.7 6.4 5.5l2.6 2.4 2.7 2.4q1.3 1.2 2.6 2.4l2.5 2.4q2.6 2.4 5.2 4.9 2.5 2.5 5 5c1.6 1.7 3.2 3.4 4.9 5.1l2.4 2.6q3.6 3.9 7.1 7.8 1.2 1.4 2.3 2.7c0.8 0.9 1.6 1.8 2.3 2.7q1.2 1.3 2.3 2.7 2.3 2.7 4.5 5.4l2.2 2.8q3.3 4.2 6.5 8.4c0.7 1 1.4 1.9 2.1 2.8l2 2.9q2.1 2.8 4.1 5.7l1.8 2.6q1.6 2.4 3.2 4.8 0.9 1.4 1.8 2.8 0.6 0.8 1 1.6 1 1.5 1.9 3c2.5 4 5 8 7.4 12.1q0.9 1.5 1.7 3 1.2 2.2 2.4 4.3c0.6 1 1.2 2 1.7 3.1q5.9 10.8 11 22l1.5 3.2 1.7 3.8 1.1 2.7c0.5 1.1 1 2.3 1.5 3.4l1.3 3q2 5 4 10c0.4 1.1 0.7 2.1 1.1 3.2 0.4 1 0.8 2.2 1.2 3.3q1 2.9 2.1 5.9 4.2 12.4 7.7 25.1 0.4 1.4 0.7 2.9 0.6 2.2 1.2 4.4 0.6 2.7 1.3 5.4 0.8 3.7 1.6 7.5 0.4 1.8 0.8 3.5 1.1 5.2 2 10.6 0.6 3.5 1.2 7.1 0.3 1.7 0.5 3.5l0.5 3.8q0.3 1.6 0.5 3.4 0.4 3.5 0.9 7.1c0.2 2.4 0.4 4.6 0.6 6.9q0.6 6 1 12.1 0.2 3.2 0.3 6.4 0.3 5 0.4 10.1c0 0.9 0 1.7 0 2.6q0 2.9 0 5.8c0.1 52.2-9.7 103.9-28.7 152.5-41.2 93.5-115.3 168.6-208.1 211.3 13.8-9.7 26.7-20.5 38.7-32.3 15.7-13.9 29.2-30.1 40.1-48l0.4-0.6 0.2-0.2c0 0 0-0.1 0-0.1 34.6-56.6 40.6-122.8 30.9-166.2-24.3-108.7-148.3-248.1-148.3-248.1-54.8-58.4-73.2-106.8-79.1-128.9-3.1-11.1-3.3-22.7-0.7-33.8z"/>
			<path class="s4" d="m155.6 616.9c29.6-36 96.7-139.2 12.5-256.1-9.3-13-19.9-25.1-31.6-36 3 2.1 195.7 137.1 235.8 248q1.4 4 2.9 7.9c6.9 17.9 31.5 92.8-14.3 143.1-25.2 27.6-66.2 51.7-103.6 69.1q-3.6 0.6-7.2 1.1l-1.4 0.2c-19.7 2.3-58.8 4.5-88.4-9.7-22.6-10.8-39.8-31-38.9-67.8 0.1-4 0-8.1 0-12.1-0.1-5.5 0.4-15.1 4-28.7 5.7-21.6 16-41.8 30.2-59z"/>
			<path class="s5" d="m2.8 130.4c24.2-100.9 118-125.5 177.8-129.9h0.2q12-0.6 24.2-0.5c2.2 0 4.4 0.1 6.6 0.1l2.8 0.1 2.8 0.1q4.1 0.1 8.1 0.4 1.9 0.1 3.8 0.2 0.3 0 0.6 0 3.3 0.2 6.5 0.5 2.8 0.2 5.5 0.5 1.3 0.1 2.6 0.3 1.7 0.1 3.5 0.4 2.7 0.2 5.4 0.6l2.5 0.3q1.9 0.3 3.8 0.5 2.7 0.4 5.3 0.8c1.8 0.3 3.6 0.6 5.4 0.9 1.8 0.3 3.5 0.6 5.2 0.9q2.6 0.4 5.2 1 2.5 0.4 5 1 5.4 1.1 10.8 2.4 2.5 0.6 5.1 1.2l4.4 1.1 1.5 0.5q2.2 0.5 4.4 1.1c1.8 0.5 3.7 1 5.5 1.6l4.7 1.3 4.2 1.3q0.4 0.2 0.9 0.3 2.5 0.8 5 1.6c3 1 5.9 2 8.8 3.1l0.3 0.1q1.4 0.4 2.7 1c1.8 0.6 3.5 1.2 5.2 1.9q1.5 0.6 3 1.2 0.2 0 0.4 0.1 16.3 6.4 31.8 14.2c0 0-119.3-12.2-136.5 59.4-2.6 11.1-2.4 22.8 0.7 33.8 6 22.1 24.3 70.5 79.1 128.9 0 0 124 139.4 148.3 248.1 9.7 43.5 3.7 109.6-30.9 166.2 0 0 0 0 0 0.1l-0.1 0.2-0.4 0.6c-2.9 4.5-16.7 25-40.1 48-12 11.8-25 22.6-38.8 32.3-24 11-49 19.7-74.7 26q-1.3 0.3-2.7 0.6-13.3 3.2-27 5.5h-0.1-0.2l-0.5 0.1q-1.6 0.2-3.2 0.5c37.5-17.5 78.5-41.5 103.6-69.1 45.9-50.4 21.3-125.2 14.4-143.1q-1.5-4-3-8c-40-110.9-232.7-245.8-235.7-248-10.8-10.1-22.5-19.4-34.9-27.7-38.5-25.9-117.4-89.5-98.8-166.6z"/>
			<path class="s6" d="m404.3 727.9c23.4-23 37.2-43.5 40.1-48-10.9 17.9-24.4 34.1-40.1 48z"/>
		</g>
	</g>
</svg>