<svg xmlns="http://www.w3.org/2000/svg" xmlns:xlink="http://www.w3.org/1999/xlink" viewBox="0 0 2647.15 780.42"><defs><style>.cls-1{fill:#020933;}.cls-2{fill:url(#linear-gradient);}.cls-3{fill:url(#linear-gradient-2);}.cls-4{fill:url(#linear-gradient-3);}.cls-5{fill:url(#linear-gradient-4);}.cls-6{fill:url(#linear-gradient-5);}.cls-7{fill:url(#linear-gradient-6);}</style><linearGradient id="linear-gradient" x1="2132.86" y1="383.99" x2="2513.35" y2="383.99" gradientUnits="userSpaceOnUse"><stop offset="0.18" stop-color="#8c1dba"/><stop offset="0.91" stop-color="#15057f"/></linearGradient><linearGradient id="linear-gradient-2" x1="2257.81" y1="547.83" x2="2513.86" y2="547.83" xlink:href="#linear-gradient"/><linearGradient id="linear-gradient-3" x1="2923.79" y1="14181.7" x2="3942.82" y2="15251.55" gradientTransform="matrix(1, 0, 0, -1, -1149.3, 15088.88)" gradientUnits="userSpaceOnUse"><stop offset="0.18" stop-color="#8c1dba"/><stop offset="0.81" stop-color="#15057f"/></linearGradient><linearGradient id="linear-gradient-4" x1="3750.87" y1="14285.65" x2="3381.77" y2="14822.35" gradientTransform="matrix(1, 0, 0, -1, -1149.3, 15088.88)" gradientUnits="userSpaceOnUse"><stop offset="0.12" stop-color="#8c1dba"/><stop offset="0.95" stop-color="#15057f"/></linearGradient><linearGradient id="linear-gradient-5" x1="2929.92" y1="14335.22" x2="4080.02" y2="15052.02" gradientTransform="matrix(1, 0, 0, -1, -1149.3, 15088.88)" xlink:href="#linear-gradient"/><linearGradient id="linear-gradient-6" x1="3360.62" y1="14398.63" x2="3399.97" y2="14398.63" gradientTransform="matrix(1, 0, 0, -1, -1149.3, 15088.88)" gradientUnits="userSpaceOnUse"><stop offset="0.05" stop-color="#8713db"/><stop offset="0.69" stop-color="#6816d7"/></linearGradient></defs><title>شعار همس</title><g id="Layer_2" data-name="Layer 2"><g id="Layer_1-2" data-name="Layer 1"><path class="cls-1" d="M903,504.92h64.25v84.51H898.1q-55.89,0-94.28-30.73Q771,588,717.22,589.43H650.88q-51.69,0-84.51-27.24-32.83,26.55-82.4,27.24H416.92a147.72,147.72,0,0,1-44-6.29q-13.28,67.05-67.74,105.45-48.9,33.52-118.73,33.52-94.27,0-146-66.34Q0,604.08,0,534.26q0-55.17,25.84-96.38l83.8-17.46q-27.93,47.5-27.93,99.87,0,53.09,30,85.9,28.62,31.42,74.72,31.42,48.19,0,75.08-24.44t26.88-68.44V362.46l88-46.1V454.64q0,27.24,11.52,38.76T426,504.92h46.79q26.54,0,38.06-11.52t11.53-38.76V344.3l87.29-46.79V454.64q0,27.24,11.53,38.76t38.06,11.52h47.49q26.52,0,38.06-11.52t11.52-38.76V325.44l87.29-46.09V443.47q0,33.52,13.62,47.49T903,504.92Z"/><path class="cls-1" d="M1369.48,504.92h62.16v84.51h-71.23q-50.29,0-82.41-25.84-37.71,39.79-99.17,39.8-62.85,0-99.17-39.8-33.51,25.85-83.1,25.84H925.33V504.92h62.85q26.54,0,37.71-11.52t11.17-38.76V434.39q0-81.7,42.6-127.1,37-39.81,99.17-39.81,70.53,0,109,51.68,32.1,44,32.12,115.23v20.25q0,27.24,11.52,38.76T1369.48,504.92Zm-190.65,14q53.07,0,53.08-86.6,0-83.1-53.08-83.1-53.79,0-53.77,83.1Q1125.06,518.9,1178.83,518.89Z"/><path class="cls-1" d="M1472.14,375.73q17.44-58.67,62.5-92.19T1639.05,250q79.62,0,130.59,52.38,47.49,48.89,47.49,126.4v30.73q0,63.56-39.8,99.17-34.93,30.74-90.79,30.73h-88a140.3,140.3,0,0,1-44.69-7,144.6,144.6,0,0,1-44.7,7H1389.73V504.92H1461q-11.9-25.83-11.87-56.56Q1449.1,405.06,1472.14,375.73Zm81.71,122.91q44.69-14.67,44.69-58,0-21.63-12.22-34.57t-32.47-12.92q-20.26,0-32.48,12.92t-12.22,34.57Q1509.15,484,1553.85,498.64Zm176-44.7V428.8q0-44-25.49-70.53T1637,331.73q-28.64,0-49.58,12.57,32.82,9.78,52,37.71t19.2,66.35q0,30.74-11.87,56.56h38.41q25.83,0,35.27-10.82T1729.84,453.94Z"/><polygon class="cls-2" points="2270.07 41.89 2270.85 41.5 2360.74 21.79 2513.35 170.3 2224.53 499.06 2236.82 680.35 2290.29 746.19 2282.95 742.78 2219.92 700.32 2132.86 543.62 2312.1 226.12 2366.38 96.04 2270.07 41.89"/><polygon class="cls-3" points="2512.55 319.19 2513.86 317.96 2442.17 348 2277.27 541.57 2257.81 666.52 2308 743.34 2379.69 772.01 2392.84 777.18 2396.15 777.7 2386.86 748.46 2315.17 711.59 2301.85 640.91 2310.05 566.15 2358.18 484.21 2440.12 380.77 2489.28 339.8 2512.55 319.19"/><path class="cls-4" d="M2404.19,100c-16.85-70.24-133.85-58.27-133.85-58.27q-5.49,2.73-10.87,5.64c-1,.56-2.07,1.12-3.09,1.7q-14,7.69-27.1,16.44l-2.91,2c-1.11.75-2.21,1.51-3.3,2.27l-2.47,1.72c-1.71,1.19-3.39,2.41-5.07,3.62l-.69.52c-.91.66-1.83,1.34-2.73,2q-8,6-15.7,12.36L2194,92c-2.1,1.77-4.18,3.56-6.25,5.39l-2.6,2.31-2.57,2.33c-.87.78-1.72,1.57-2.56,2.36l-2.53,2.38q-2.52,2.39-5,4.82c-1.65,1.61-3.29,3.26-4.91,4.9s-3.22,3.32-4.81,5c-.81.84-1.6,1.69-2.39,2.53-2.35,2.54-4.69,5.11-7,7.7l-2.28,2.61-2.26,2.63c-.75.88-1.49,1.76-2.23,2.65-1.48,1.77-2.95,3.56-4.4,5.35-.71.91-1.44,1.81-2.16,2.71q-3.23,4.07-6.33,8.23l-2.07,2.78-2,2.8q-2,2.81-4,5.65c-.58.83-1.15,1.67-1.73,2.51-1.08,1.58-2.14,3.16-3.2,4.76-.59.89-1.18,1.79-1.75,2.68-.35.52-.69,1.06-1,1.59-.63,1-1.24,1.93-1.85,2.9-2.48,3.92-4.89,7.91-7.22,11.92-.58,1-1.14,2-1.69,2.94q-1.2,2.1-2.37,4.22c-.57,1-1.12,2-1.66,3q-5.73,10.59-10.82,21.55c-.49,1-1,2.09-1.44,3.13-.56,1.24-1.12,2.49-1.67,3.73l-1.13,2.59c-.49,1.12-1,2.25-1.43,3.36s-.84,2-1.25,3q-2,4.89-3.87,9.82c-.41,1-.78,2-1.16,3.07s-.8,2.17-1.19,3.26c-.69,1.91-1.37,3.83-2,5.75q-4.15,12.18-7.53,24.69c-.26.91-.49,1.84-.73,2.77-.38,1.44-.75,2.88-1.12,4.34-.44,1.75-.86,3.52-1.28,5.29q-.84,3.69-1.64,7.37c-.25,1.14-.49,2.3-.71,3.44-.71,3.43-1.37,6.9-2,10.36-.42,2.33-.81,4.65-1.17,7-.19,1.14-.36,2.3-.53,3.45s-.35,2.44-.52,3.67-.3,2.22-.44,3.34c-.3,2.34-.59,4.69-.85,7s-.48,4.46-.68,6.69q-.55,5.94-.93,11.92c-.12,2.08-.24,4.17-.34,6.25q-.22,5-.32,9.93c0,.85,0,1.69,0,2.54,0,1.91,0,3.82,0,5.74a407.54,407.54,0,0,0,28.19,149.45,410.17,410.17,0,0,0,204.13,207.25,296.89,296.89,0,0,1-38-31.65,210.78,210.78,0,0,1-39.35-47.06l-.38-.59a2.21,2.21,0,0,1-.13-.23s0,0,0-.06h0c-33.92-55.53-39.83-120.38-30.3-163,23.83-106.59,145.46-243.27,145.46-243.27,53.68-57.32,71.71-104.73,77.57-126.44A67.18,67.18,0,0,0,2404.19,100Z"/><path class="cls-5" d="M2494.55,604.93c-29-35.27-94.81-136.51-12.26-251.18a245.25,245.25,0,0,1,31-35.25c-3,2.08-191.9,134.39-231.16,243.16-.94,2.6-1.92,5.19-2.91,7.77-6.73,17.57-30.88,90.94,14.11,140.32,24.65,27.06,64.88,50.65,101.58,67.75h0c2.35.38,4.69.73,7.05,1,.44.07.89.12,1.36.18,19.33,2.32,57.6,4.45,86.71-9.47,22.13-10.57,39-30.42,38.13-66.52-.09-4,0-7.92,0-11.88.09-5.32-.45-14.79-3.9-28.07A151,151,0,0,0,2494.55,604.93Z"/><path class="cls-6" d="M2644.43,127.91C2620.63,29,2528.66,4.78,2470,.5l-.17,0Q2458.06-.1,2446.11,0q-3.27,0-6.52.11l-2.71.08-2.73.1c-2.65.1-5.29.22-7.92.39-1.23.06-2.46.13-3.69.22-.21,0-.43,0-.63,0-2.14.15-4.29.31-6.42.49-1.79.15-3.59.31-5.38.49-.84.07-1.67.16-2.49.25-1.17.11-2.34.24-3.5.37-1.77.19-3.55.41-5.32.63l-2.38.31-3.73.51c-1.74.23-3.48.5-5.21.76s-3.55.55-5.32.85-3.4.58-5.1.89h0c-1.7.31-3.41.63-5.11,1h0c-1.6.3-3.22.63-4.83,1-3.52.71-7,1.49-10.52,2.3L2351.46,12c-1.43.35-2.84.72-4.27,1.08l-1.52.4c-1.43.38-2.85.75-4.26,1.15-1.81.49-3.61,1-5.42,1.53-1.52.44-3,.9-4.55,1.35l-4.11,1.26-.86.28q-2.44.76-4.89,1.58c-2.92,1-5.83,2-8.71,3l-.24.08-2.67,1c-1.72.61-3.41,1.25-5.11,1.91-1,.37-2,.75-3,1.15a3.86,3.86,0,0,0-.39.15q-16,6.29-31.15,13.88s117-12,133.85,58.27a67.18,67.18,0,0,1-.7,33.12c-5.86,21.71-23.89,69.12-77.57,126.44,0,0-121.63,136.68-145.46,243.27-9.53,42.61-3.62,107.46,30.3,163h0s0,0,0,.06a1.34,1.34,0,0,0,.13.23l.38.59c2.86,4.4,16.38,24.5,39.35,47.06a296.89,296.89,0,0,0,38,31.65,404,404,0,0,0,73.29,25.45c.88.23,1.75.43,2.63.64q13.05,3.11,26.43,5.33l.11,0,.2,0,.49.09c1,.18,2.07.34,3.11.49-36.7-17.1-76.93-40.69-101.58-67.75-45-49.38-20.84-122.75-14.11-140.32,1-2.58,2-5.17,2.91-7.77,39.26-108.77,228.17-241.08,231.16-243.16l0,0a265.83,265.83,0,0,1,34.19-27.24C2585.25,265.86,2662.6,203.45,2644.43,127.91Z"/><path class="cls-7" d="M2250.67,713.79c-23-22.56-36.49-42.66-39.35-47.06A210.78,210.78,0,0,0,2250.67,713.79Z"/></g></g></svg>